INFO 2025-03-03 21:16:31 autoreload 8208 5516 Watching for file changes with StatReloader
INFO 2025-03-03 21:17:36 views 8208 12032 收到请求: http://localhost:3000
INFO 2025-03-03 21:17:36 serializers 8208 12032 开始验证base64编码的视频数据
INFO 2025-03-03 21:17:36 serializers 8208 12032 视频数据验证通过
INFO 2025-03-03 21:17:36 views 8208 12032 创建会话成功: c8d30a36-1652-4ba7-9655-a40dfabfda04
INFO 2025-03-03 21:17:36 services 8208 12032 初始化视频处理服务
INFO 2025-03-03 21:17:36 services 8208 12032 开始处理视频: session_id=c8d30a36-1652-4ba7-9655-a40dfabfda04
INFO 2025-03-03 21:17:40 services 8208 12032 DTW分析完成: 0.039118676231252085
INFO 2025-03-03 21:17:40 services 8208 12032 开始生成overlap视频的HLS流: ffmpeg -i F:\DjangoRestfulAPI\openpose3\pose\media\hls\c8d30a36-1652-4ba7-9655-a40dfabfda04\overlap_annotated.mp4 -hls_time 2 -hls_list_size 0 -hls_segment_filename F:\DjangoRestfulAPI\openpose3\pose\media\hls\c8d30a36-1652-4ba7-9655-a40dfabfda04\overlap_%03d.ts -f hls F:\DjangoRestfulAPI\openpose3\pose\media\hls\c8d30a36-1652-4ba7-9655-a40dfabfda04\overlap.m3u8
DEBUG 2025-03-03 21:17:42 services 8208 12032 FFmpeg 输出: ffmpeg version 7.0.2-essentials_build-www.gyan.dev Copyright (c) 2000-2024 the FFmpeg developers
DEBUG 2025-03-03 21:17:42 services 8208 12032 FFmpeg 输出: built with gcc 13.2.0 (Rev5, Built by MSYS2 project)
DEBUG 2025-03-03 21:17:42 services 8208 12032 FFmpeg 输出: configuration: --enable-gpl --enable-version3 --enable-static --disable-w32threads --disable-autodetect --enable-fontconfig --enable-iconv --enable-gnutls --enable-libxml2 --enable-gmp --enable-bzlib --enable-lzma --enable-zlib --enable-libsrt --enable-libssh --enable-libzmq --enable-avisynth --enable-sdl2 --enable-libwebp --enable-libx264 --enable-libx265 --enable-libxvid --enable-libaom --enable-libopenjpeg --enable-libvpx --enable-mediafoundation --enable-libass --enable-libfreetype --enable-libfribidi --enable-libharfbuzz --enable-libvidstab --enable-libvmaf --enable-libzimg --enable-amf --enable-cuda-llvm --enable-cuvid --enable-dxva2 --enable-d3d11va --enable-d3d12va --enable-ffnvcodec --enable-libvpl --enable-nvdec --enable-nvenc --enable-vaapi --enable-libgme --enable-libopenmpt --enable-libopencore-amrwb --enable-libmp3lame --enable-libtheora --enable-libvo-amrwbenc --enable-libgsm --enable-libopencore-amrnb --enable-libopus --enable-libspeex --enable-libvorbis --enable-librubberband
DEBUG 2025-03-03 21:17:42 services 8208 12032 FFmpeg 输出: libavutil      59.  8.100 / 59.  8.100
DEBUG 2025-03-03 21:17:42 services 8208 12032 FFmpeg 输出: libavcodec     61.  3.100 / 61.  3.100
DEBUG 2025-03-03 21:17:42 services 8208 12032 FFmpeg 输出: libavformat    61.  1.100 / 61.  1.100
DEBUG 2025-03-03 21:17:42 services 8208 12032 FFmpeg 输出: libavdevice    61.  1.100 / 61.  1.100
DEBUG 2025-03-03 21:17:42 services 8208 12032 FFmpeg 输出: libavfilter    10.  1.100 / 10.  1.100
DEBUG 2025-03-03 21:17:42 services 8208 12032 FFmpeg 输出: libswscale      8.  1.100 /  8.  1.100
DEBUG 2025-03-03 21:17:42 services 8208 12032 FFmpeg 输出: libswresample   5.  1.100 /  5.  1.100
DEBUG 2025-03-03 21:17:42 services 8208 12032 FFmpeg 输出: libpostproc    58.  1.100 / 58.  1.100
DEBUG 2025-03-03 21:17:42 services 8208 12032 FFmpeg 输出: Input #0, mov,mp4,m4a,3gp,3g2,mj2, from 'F:\DjangoRestfulAPI\openpose3\pose\media\hls\c8d30a36-1652-4ba7-9655-a40dfabfda04\overlap_annotated.mp4':
DEBUG 2025-03-03 21:17:42 services 8208 12032 FFmpeg 输出: Metadata:
DEBUG 2025-03-03 21:17:42 services 8208 12032 FFmpeg 输出: major_brand     : isom
DEBUG 2025-03-03 21:17:42 services 8208 12032 FFmpeg 输出: minor_version   : 512
DEBUG 2025-03-03 21:17:42 services 8208 12032 FFmpeg 输出: compatible_brands: isomiso2mp41
DEBUG 2025-03-03 21:17:42 services 8208 12032 FFmpeg 输出: encoder         : Lavf58.76.100
DEBUG 2025-03-03 21:17:42 services 8208 12032 FFmpeg 输出: Duration: 00:00:01.77, start: 0.000000, bitrate: 4472 kb/s
DEBUG 2025-03-03 21:17:42 services 8208 12032 FFmpeg 输出: Stream #0:0[0x1](und): Video: mpeg4 (Simple Profile) (mp4v / 0x7634706D), yuv420p, 1280x720 [SAR 1:1 DAR 16:9], 4467 kb/s, 30 fps, 30 tbr, 15360 tbn (default)
DEBUG 2025-03-03 21:17:42 services 8208 12032 FFmpeg 输出: Metadata:
DEBUG 2025-03-03 21:17:42 services 8208 12032 FFmpeg 输出: handler_name    : VideoHandler
DEBUG 2025-03-03 21:17:42 services 8208 12032 FFmpeg 输出: vendor_id       : [0][0][0][0]
DEBUG 2025-03-03 21:17:42 services 8208 12032 FFmpeg 输出: Stream mapping:
DEBUG 2025-03-03 21:17:42 services 8208 12032 FFmpeg 输出: Stream #0:0 -> #0:0 (mpeg4 (native) -> h264 (libx264))
DEBUG 2025-03-03 21:17:42 services 8208 12032 FFmpeg 输出: Press [q] to stop, [?] for help
DEBUG 2025-03-03 21:17:42 services 8208 12032 FFmpeg 输出: [libx264 @ 0000016c52e34b40] using SAR=1/1
DEBUG 2025-03-03 21:17:42 services 8208 12032 FFmpeg 输出: [libx264 @ 0000016c52e34b40] using cpu capabilities: MMX2 SSE2Fast SSSE3 SSE4.2 AVX FMA3 BMI2 AVX2
DEBUG 2025-03-03 21:17:42 services 8208 12032 FFmpeg 输出: [libx264 @ 0000016c52e34b40] profile High, level 3.1, 4:2:0, 8-bit
DEBUG 2025-03-03 21:17:42 services 8208 12032 FFmpeg 输出: [libx264 @ 0000016c52e34b40] 264 - core 164 r3191 4613ac3 - H.264/MPEG-4 AVC codec - Copyleft 2003-2024 - http://www.videolan.org/x264.html - options: cabac=1 ref=3 deblock=1:0:0 analyse=0x3:0x113 me=hex subme=7 psy=1 psy_rd=1.00:0.00 mixed_ref=1 me_range=16 chroma_me=1 trellis=1 8x8dct=1 cqm=0 deadzone=21,11 fast_pskip=1 chroma_qp_offset=-2 threads=22 lookahead_threads=3 sliced_threads=0 nr=0 decimate=1 interlaced=0 bluray_compat=0 constrained_intra=0 bframes=3 b_pyramid=2 b_adapt=1 b_bias=0 direct=1 weightb=1 open_gop=0 weightp=2 keyint=250 keyint_min=25 scenecut=40 intra_refresh=0 rc_lookahead=40 rc=crf mbtree=1 crf=23.0 qcomp=0.60 qpmin=0 qpmax=69 qpstep=4 ip_ratio=1.40 aq=1:1.00
DEBUG 2025-03-03 21:17:42 services 8208 12032 FFmpeg 输出: Output #0, hls, to 'F:\DjangoRestfulAPI\openpose3\pose\media\hls\c8d30a36-1652-4ba7-9655-a40dfabfda04\overlap.m3u8':
DEBUG 2025-03-03 21:17:42 services 8208 12032 FFmpeg 输出: Metadata:
DEBUG 2025-03-03 21:17:42 services 8208 12032 FFmpeg 输出: major_brand     : isom
DEBUG 2025-03-03 21:17:42 services 8208 12032 FFmpeg 输出: minor_version   : 512
DEBUG 2025-03-03 21:17:42 services 8208 12032 FFmpeg 输出: compatible_brands: isomiso2mp41
DEBUG 2025-03-03 21:17:42 services 8208 12032 FFmpeg 输出: encoder         : Lavf61.1.100
DEBUG 2025-03-03 21:17:42 services 8208 12032 FFmpeg 输出: Stream #0:0(und): Video: h264, yuv420p(progressive), 1280x720 [SAR 1:1 DAR 16:9], q=2-31, 30 fps, 90k tbn (default)
DEBUG 2025-03-03 21:17:42 services 8208 12032 FFmpeg 输出: Metadata:
DEBUG 2025-03-03 21:17:42 services 8208 12032 FFmpeg 输出: handler_name    : VideoHandler
DEBUG 2025-03-03 21:17:42 services 8208 12032 FFmpeg 输出: vendor_id       : [0][0][0][0]
DEBUG 2025-03-03 21:17:42 services 8208 12032 FFmpeg 输出: encoder         : Lavc61.3.100 libx264
DEBUG 2025-03-03 21:17:42 services 8208 12032 FFmpeg 输出: Side data:
DEBUG 2025-03-03 21:17:42 services 8208 12032 FFmpeg 输出: cpb: bitrate max/min/avg: 0/0/0 buffer size: 0 vbv_delay: N/A
DEBUG 2025-03-03 21:17:42 services 8208 12032 FFmpeg 输出: [hls @ 0000016c52de3440] Opening 'F:\DjangoRestfulAPI\openpose3\pose\media\hls\c8d30a36-1652-4ba7-9655-a40dfabfda04\overlap_000.ts' for writing
DEBUG 2025-03-03 21:17:42 services 8208 12032 FFmpeg 输出: [hls @ 0000016c52de3440] Opening 'F:\DjangoRestfulAPI\openpose3\pose\media\hls\c8d30a36-1652-4ba7-9655-a40dfabfda04\overlap.m3u8.tmp' for writing
DEBUG 2025-03-03 21:17:42 services 8208 12032 FFmpeg 输出: [out#0/hls @ 0000016c52dec700] video:401KiB audio:0KiB subtitle:0KiB other streams:0KiB global headers:0KiB muxing overhead: unknown
DEBUG 2025-03-03 21:17:42 services 8208 12032 FFmpeg 输出: frame=   53 fps=0.0 q=-1.0 Lsize=N/A time=00:00:01.70 bitrate=N/A speed=5.01x
DEBUG 2025-03-03 21:17:42 services 8208 12032 FFmpeg 输出: [libx264 @ 0000016c52e34b40] frame I:1     Avg QP:19.00  size: 18646
DEBUG 2025-03-03 21:17:42 services 8208 12032 FFmpeg 输出: [libx264 @ 0000016c52e34b40] frame P:40    Avg QP:21.79  size:  8554
DEBUG 2025-03-03 21:17:42 services 8208 12032 FFmpeg 输出: [libx264 @ 0000016c52e34b40] frame B:12    Avg QP:23.65  size:  4119
DEBUG 2025-03-03 21:17:42 services 8208 12032 FFmpeg 输出: [libx264 @ 0000016c52e34b40] consecutive B-frames: 62.3% 18.9% 11.3%  7.5%
DEBUG 2025-03-03 21:17:42 services 8208 12032 FFmpeg 输出: [libx264 @ 0000016c52e34b40] mb I  I16..4: 48.0% 47.8%  4.1%
DEBUG 2025-03-03 21:17:42 services 8208 12032 FFmpeg 输出: [libx264 @ 0000016c52e34b40] mb P  I16..4:  3.2%  7.5%  0.3%  P16..4: 33.0%  5.5%  2.9%  0.0%  0.0%    skip:47.7%
DEBUG 2025-03-03 21:17:42 services 8208 12032 FFmpeg 输出: [libx264 @ 0000016c52e34b40] mb B  I16..4:  0.9%  1.7%  0.0%  B16..8: 38.9%  2.8%  0.5%  direct: 1.8%  skip:53.3%  L0:52.8% L1:43.4% BI: 3.9%
DEBUG 2025-03-03 21:17:42 services 8208 12032 FFmpeg 输出: [libx264 @ 0000016c52e34b40] 8x8 transform intra:64.7% inter:83.5%
DEBUG 2025-03-03 21:17:42 services 8208 12032 FFmpeg 输出: [libx264 @ 0000016c52e34b40] coded y,uvDC,uvAC intra: 28.0% 29.9% 2.6% inter: 8.4% 8.7% 1.6%
DEBUG 2025-03-03 21:17:42 services 8208 12032 FFmpeg 输出: [libx264 @ 0000016c52e34b40] i16 v,h,dc,p: 41% 40% 16%  4%
DEBUG 2025-03-03 21:17:42 services 8208 12032 FFmpeg 输出: [libx264 @ 0000016c52e34b40] i8 v,h,dc,ddl,ddr,vr,hd,vl,hu: 28% 26% 40%  1%  1%  1%  1%  1%  1%
DEBUG 2025-03-03 21:17:42 services 8208 12032 FFmpeg 输出: [libx264 @ 0000016c52e34b40] i4 v,h,dc,ddl,ddr,vr,hd,vl,hu: 36% 30% 18%  2%  2%  3%  2%  2%  5%
DEBUG 2025-03-03 21:17:42 services 8208 12032 FFmpeg 输出: [libx264 @ 0000016c52e34b40] i8c dc,h,v,p: 52% 25% 21%  2%
DEBUG 2025-03-03 21:17:42 services 8208 12032 FFmpeg 输出: [libx264 @ 0000016c52e34b40] Weighted P-Frames: Y:0.0% UV:0.0%
DEBUG 2025-03-03 21:17:42 services 8208 12032 FFmpeg 输出: [libx264 @ 0000016c52e34b40] ref P L0: 73.6% 10.7% 11.9%  3.8%
DEBUG 2025-03-03 21:17:42 services 8208 12032 FFmpeg 输出: [libx264 @ 0000016c52e34b40] ref B L0: 85.8% 12.3%  1.8%
DEBUG 2025-03-03 21:17:42 services 8208 12032 FFmpeg 输出: [libx264 @ 0000016c52e34b40] ref B L1: 99.0%  1.0%
DEBUG 2025-03-03 21:17:42 services 8208 12032 FFmpeg 输出: [libx264 @ 0000016c52e34b40] kb/s:1857.64
INFO 2025-03-03 21:17:42 services 8208 12032 HLS 流处理完成: F:\DjangoRestfulAPI\openpose3\pose\media\hls\c8d30a36-1652-4ba7-9655-a40dfabfda04/overlap.m3u8
INFO 2025-03-03 21:17:42 services 8208 12032 开始生成standard视频的HLS流: ffmpeg -i F:\DjangoRestfulAPI\openpose3\pose\media\hls\c8d30a36-1652-4ba7-9655-a40dfabfda04\standard_annotated.mp4 -hls_time 2 -hls_list_size 0 -hls_segment_filename F:\DjangoRestfulAPI\openpose3\pose\media\hls\c8d30a36-1652-4ba7-9655-a40dfabfda04\standard_%03d.ts -f hls F:\DjangoRestfulAPI\openpose3\pose\media\hls\c8d30a36-1652-4ba7-9655-a40dfabfda04\standard.m3u8
DEBUG 2025-03-03 21:17:42 services 8208 12032 FFmpeg 输出: ffmpeg version 7.0.2-essentials_build-www.gyan.dev Copyright (c) 2000-2024 the FFmpeg developers
DEBUG 2025-03-03 21:17:42 services 8208 12032 FFmpeg 输出: built with gcc 13.2.0 (Rev5, Built by MSYS2 project)
DEBUG 2025-03-03 21:17:42 services 8208 12032 FFmpeg 输出: configuration: --enable-gpl --enable-version3 --enable-static --disable-w32threads --disable-autodetect --enable-fontconfig --enable-iconv --enable-gnutls --enable-libxml2 --enable-gmp --enable-bzlib --enable-lzma --enable-zlib --enable-libsrt --enable-libssh --enable-libzmq --enable-avisynth --enable-sdl2 --enable-libwebp --enable-libx264 --enable-libx265 --enable-libxvid --enable-libaom --enable-libopenjpeg --enable-libvpx --enable-mediafoundation --enable-libass --enable-libfreetype --enable-libfribidi --enable-libharfbuzz --enable-libvidstab --enable-libvmaf --enable-libzimg --enable-amf --enable-cuda-llvm --enable-cuvid --enable-dxva2 --enable-d3d11va --enable-d3d12va --enable-ffnvcodec --enable-libvpl --enable-nvdec --enable-nvenc --enable-vaapi --enable-libgme --enable-libopenmpt --enable-libopencore-amrwb --enable-libmp3lame --enable-libtheora --enable-libvo-amrwbenc --enable-libgsm --enable-libopencore-amrnb --enable-libopus --enable-libspeex --enable-libvorbis --enable-librubberband
DEBUG 2025-03-03 21:17:42 services 8208 12032 FFmpeg 输出: libavutil      59.  8.100 / 59.  8.100
DEBUG 2025-03-03 21:17:42 services 8208 12032 FFmpeg 输出: libavcodec     61.  3.100 / 61.  3.100
DEBUG 2025-03-03 21:17:42 services 8208 12032 FFmpeg 输出: libavformat    61.  1.100 / 61.  1.100
DEBUG 2025-03-03 21:17:42 services 8208 12032 FFmpeg 输出: libavdevice    61.  1.100 / 61.  1.100
DEBUG 2025-03-03 21:17:42 services 8208 12032 FFmpeg 输出: libavfilter    10.  1.100 / 10.  1.100
DEBUG 2025-03-03 21:17:42 services 8208 12032 FFmpeg 输出: libswscale      8.  1.100 /  8.  1.100
DEBUG 2025-03-03 21:17:42 services 8208 12032 FFmpeg 输出: libswresample   5.  1.100 /  5.  1.100
DEBUG 2025-03-03 21:17:42 services 8208 12032 FFmpeg 输出: libpostproc    58.  1.100 / 58.  1.100
DEBUG 2025-03-03 21:17:42 services 8208 12032 FFmpeg 输出: Input #0, mov,mp4,m4a,3gp,3g2,mj2, from 'F:\DjangoRestfulAPI\openpose3\pose\media\hls\c8d30a36-1652-4ba7-9655-a40dfabfda04\standard_annotated.mp4':
DEBUG 2025-03-03 21:17:42 services 8208 12032 FFmpeg 输出: Metadata:
DEBUG 2025-03-03 21:17:42 services 8208 12032 FFmpeg 输出: major_brand     : isom
DEBUG 2025-03-03 21:17:42 services 8208 12032 FFmpeg 输出: minor_version   : 512
DEBUG 2025-03-03 21:17:42 services 8208 12032 FFmpeg 输出: compatible_brands: isomiso2mp41
DEBUG 2025-03-03 21:17:42 services 8208 12032 FFmpeg 输出: encoder         : Lavf58.76.100
DEBUG 2025-03-03 21:17:42 services 8208 12032 FFmpeg 输出: Duration: 00:00:03.20, start: 0.000000, bitrate: 4503 kb/s
DEBUG 2025-03-03 21:17:42 services 8208 12032 FFmpeg 输出: Stream #0:0[0x1](und): Video: mpeg4 (Simple Profile) (mp4v / 0x7634706D), yuv420p, 1280x720 [SAR 1:1 DAR 16:9], 4500 kb/s, 30 fps, 30 tbr, 15360 tbn (default)
DEBUG 2025-03-03 21:17:42 services 8208 12032 FFmpeg 输出: Metadata:
DEBUG 2025-03-03 21:17:42 services 8208 12032 FFmpeg 输出: handler_name    : VideoHandler
DEBUG 2025-03-03 21:17:42 services 8208 12032 FFmpeg 输出: vendor_id       : [0][0][0][0]
DEBUG 2025-03-03 21:17:42 services 8208 12032 FFmpeg 输出: Stream mapping:
DEBUG 2025-03-03 21:17:42 services 8208 12032 FFmpeg 输出: Stream #0:0 -> #0:0 (mpeg4 (native) -> h264 (libx264))
DEBUG 2025-03-03 21:17:42 services 8208 12032 FFmpeg 输出: Press [q] to stop, [?] for help
DEBUG 2025-03-03 21:17:42 services 8208 12032 FFmpeg 输出: [libx264 @ 000001f81d32e980] using SAR=1/1
DEBUG 2025-03-03 21:17:42 services 8208 12032 FFmpeg 输出: [libx264 @ 000001f81d32e980] using cpu capabilities: MMX2 SSE2Fast SSSE3 SSE4.2 AVX FMA3 BMI2 AVX2
DEBUG 2025-03-03 21:17:43 services 8208 12032 FFmpeg 输出: [libx264 @ 000001f81d32e980] profile High, level 3.1, 4:2:0, 8-bit
DEBUG 2025-03-03 21:17:43 services 8208 12032 FFmpeg 输出: [libx264 @ 000001f81d32e980] 264 - core 164 r3191 4613ac3 - H.264/MPEG-4 AVC codec - Copyleft 2003-2024 - http://www.videolan.org/x264.html - options: cabac=1 ref=3 deblock=1:0:0 analyse=0x3:0x113 me=hex subme=7 psy=1 psy_rd=1.00:0.00 mixed_ref=1 me_range=16 chroma_me=1 trellis=1 8x8dct=1 cqm=0 deadzone=21,11 fast_pskip=1 chroma_qp_offset=-2 threads=22 lookahead_threads=3 sliced_threads=0 nr=0 decimate=1 interlaced=0 bluray_compat=0 constrained_intra=0 bframes=3 b_pyramid=2 b_adapt=1 b_bias=0 direct=1 weightb=1 open_gop=0 weightp=2 keyint=250 keyint_min=25 scenecut=40 intra_refresh=0 rc_lookahead=40 rc=crf mbtree=1 crf=23.0 qcomp=0.60 qpmin=0 qpmax=69 qpstep=4 ip_ratio=1.40 aq=1:1.00
DEBUG 2025-03-03 21:17:43 services 8208 12032 FFmpeg 输出: Output #0, hls, to 'F:\DjangoRestfulAPI\openpose3\pose\media\hls\c8d30a36-1652-4ba7-9655-a40dfabfda04\standard.m3u8':
DEBUG 2025-03-03 21:17:43 services 8208 12032 FFmpeg 输出: Metadata:
DEBUG 2025-03-03 21:17:43 services 8208 12032 FFmpeg 输出: major_brand     : isom
DEBUG 2025-03-03 21:17:43 services 8208 12032 FFmpeg 输出: minor_version   : 512
DEBUG 2025-03-03 21:17:43 services 8208 12032 FFmpeg 输出: compatible_brands: isomiso2mp41
DEBUG 2025-03-03 21:17:43 services 8208 12032 FFmpeg 输出: encoder         : Lavf61.1.100
DEBUG 2025-03-03 21:17:43 services 8208 12032 FFmpeg 输出: Stream #0:0(und): Video: h264, yuv420p(progressive), 1280x720 [SAR 1:1 DAR 16:9], q=2-31, 30 fps, 90k tbn (default)
DEBUG 2025-03-03 21:17:43 services 8208 12032 FFmpeg 输出: Metadata:
DEBUG 2025-03-03 21:17:43 services 8208 12032 FFmpeg 输出: handler_name    : VideoHandler
DEBUG 2025-03-03 21:17:43 services 8208 12032 FFmpeg 输出: vendor_id       : [0][0][0][0]
DEBUG 2025-03-03 21:17:43 services 8208 12032 FFmpeg 输出: encoder         : Lavc61.3.100 libx264
DEBUG 2025-03-03 21:17:43 services 8208 12032 FFmpeg 输出: Side data:
DEBUG 2025-03-03 21:17:43 services 8208 12032 FFmpeg 输出: cpb: bitrate max/min/avg: 0/0/0 buffer size: 0 vbv_delay: N/A
DEBUG 2025-03-03 21:17:43 services 8208 12032 FFmpeg 输出: [hls @ 000001f81d32c540] Opening 'F:\DjangoRestfulAPI\openpose3\pose\media\hls\c8d30a36-1652-4ba7-9655-a40dfabfda04\standard_000.ts' for writing
DEBUG 2025-03-03 21:17:43 services 8208 12032 FFmpeg 输出: [hls @ 000001f81d32c540] Opening 'F:\DjangoRestfulAPI\openpose3\pose\media\hls\c8d30a36-1652-4ba7-9655-a40dfabfda04\standard.m3u8.tmp' for writing
DEBUG 2025-03-03 21:17:43 services 8208 12032 FFmpeg 输出: [out#0/hls @ 000001f81d32fe80] video:651KiB audio:0KiB subtitle:0KiB other streams:0KiB global headers:0KiB muxing overhead: unknown
DEBUG 2025-03-03 21:17:43 services 8208 12032 FFmpeg 输出: frame=   96 fps=0.0 q=-1.0 Lsize=N/A time=00:00:03.13 bitrate=N/A speed=6.47x
DEBUG 2025-03-03 21:17:43 services 8208 12032 FFmpeg 输出: [libx264 @ 000001f81d32e980] frame I:1     Avg QP:18.90  size: 19346
DEBUG 2025-03-03 21:17:43 services 8208 12032 FFmpeg 输出: [libx264 @ 000001f81d32e980] frame P:46    Avg QP:21.42  size: 10820
DEBUG 2025-03-03 21:17:43 services 8208 12032 FFmpeg 输出: [libx264 @ 000001f81d32e980] frame B:49    Avg QP:23.36  size:  3046
DEBUG 2025-03-03 21:17:43 services 8208 12032 FFmpeg 输出: [libx264 @ 000001f81d32e980] consecutive B-frames: 20.8% 27.1% 18.8% 33.3%
DEBUG 2025-03-03 21:17:43 services 8208 12032 FFmpeg 输出: [libx264 @ 000001f81d32e980] mb I  I16..4: 45.5% 47.7%  6.8%
DEBUG 2025-03-03 21:17:43 services 8208 12032 FFmpeg 输出: [libx264 @ 000001f81d32e980] mb P  I16..4:  3.5%  8.5%  0.3%  P16..4: 33.5%  7.7%  4.1%  0.0%  0.0%    skip:42.3%
DEBUG 2025-03-03 21:17:43 services 8208 12032 FFmpeg 输出: [libx264 @ 000001f81d32e980] mb B  I16..4:  0.7%  1.3%  0.0%  B16..8: 38.0%  2.0%  0.5%  direct: 1.9%  skip:55.7%  L0:52.7% L1:44.6% BI: 2.7%
DEBUG 2025-03-03 21:17:43 services 8208 12032 FFmpeg 输出: [libx264 @ 000001f81d32e980] 8x8 transform intra:65.5% inter:79.6%
DEBUG 2025-03-03 21:17:43 services 8208 12032 FFmpeg 输出: [libx264 @ 000001f81d32e980] coded y,uvDC,uvAC intra: 27.8% 31.8% 2.6% inter: 7.7% 8.5% 1.4%
DEBUG 2025-03-03 21:17:43 services 8208 12032 FFmpeg 输出: [libx264 @ 000001f81d32e980] i16 v,h,dc,p: 41% 40% 14%  5%
DEBUG 2025-03-03 21:17:43 services 8208 12032 FFmpeg 输出: [libx264 @ 000001f81d32e980] i8 v,h,dc,ddl,ddr,vr,hd,vl,hu: 27% 24% 43%  1%  1%  1%  1%  1%  1%
DEBUG 2025-03-03 21:17:43 services 8208 12032 FFmpeg 输出: [libx264 @ 000001f81d32e980] i4 v,h,dc,ddl,ddr,vr,hd,vl,hu: 35% 32% 21%  2%  2%  2%  2%  2%  4%
DEBUG 2025-03-03 21:17:43 services 8208 12032 FFmpeg 输出: [libx264 @ 000001f81d32e980] i8c dc,h,v,p: 50% 26% 22%  1%
DEBUG 2025-03-03 21:17:43 services 8208 12032 FFmpeg 输出: [libx264 @ 000001f81d32e980] Weighted P-Frames: Y:0.0% UV:0.0%
DEBUG 2025-03-03 21:17:43 services 8208 12032 FFmpeg 输出: [libx264 @ 000001f81d32e980] ref P L0: 76.0%  6.9% 12.8%  4.3%
DEBUG 2025-03-03 21:17:43 services 8208 12032 FFmpeg 输出: [libx264 @ 000001f81d32e980] ref B L0: 84.8% 13.5%  1.7%
DEBUG 2025-03-03 21:17:43 services 8208 12032 FFmpeg 输出: [libx264 @ 000001f81d32e980] ref B L1: 98.2%  1.8%
DEBUG 2025-03-03 21:17:43 services 8208 12032 FFmpeg 输出: [libx264 @ 000001f81d32e980] kb/s:1665.72
INFO 2025-03-03 21:17:43 services 8208 12032 HLS 流处理完成: F:\DjangoRestfulAPI\openpose3\pose\media\hls\c8d30a36-1652-4ba7-9655-a40dfabfda04/standard.m3u8
INFO 2025-03-03 21:17:43 services 8208 12032 开始生成exercise视频的HLS流: ffmpeg -i F:\DjangoRestfulAPI\openpose3\pose\media\hls\c8d30a36-1652-4ba7-9655-a40dfabfda04\exercise_annotated.mp4 -hls_time 2 -hls_list_size 0 -hls_segment_filename F:\DjangoRestfulAPI\openpose3\pose\media\hls\c8d30a36-1652-4ba7-9655-a40dfabfda04\exercise_%03d.ts -f hls F:\DjangoRestfulAPI\openpose3\pose\media\hls\c8d30a36-1652-4ba7-9655-a40dfabfda04\exercise.m3u8
DEBUG 2025-03-03 21:17:43 services 8208 12032 FFmpeg 输出: ffmpeg version 7.0.2-essentials_build-www.gyan.dev Copyright (c) 2000-2024 the FFmpeg developers
DEBUG 2025-03-03 21:17:43 services 8208 12032 FFmpeg 输出: built with gcc 13.2.0 (Rev5, Built by MSYS2 project)
DEBUG 2025-03-03 21:17:43 services 8208 12032 FFmpeg 输出: configuration: --enable-gpl --enable-version3 --enable-static --disable-w32threads --disable-autodetect --enable-fontconfig --enable-iconv --enable-gnutls --enable-libxml2 --enable-gmp --enable-bzlib --enable-lzma --enable-zlib --enable-libsrt --enable-libssh --enable-libzmq --enable-avisynth --enable-sdl2 --enable-libwebp --enable-libx264 --enable-libx265 --enable-libxvid --enable-libaom --enable-libopenjpeg --enable-libvpx --enable-mediafoundation --enable-libass --enable-libfreetype --enable-libfribidi --enable-libharfbuzz --enable-libvidstab --enable-libvmaf --enable-libzimg --enable-amf --enable-cuda-llvm --enable-cuvid --enable-dxva2 --enable-d3d11va --enable-d3d12va --enable-ffnvcodec --enable-libvpl --enable-nvdec --enable-nvenc --enable-vaapi --enable-libgme --enable-libopenmpt --enable-libopencore-amrwb --enable-libmp3lame --enable-libtheora --enable-libvo-amrwbenc --enable-libgsm --enable-libopencore-amrnb --enable-libopus --enable-libspeex --enable-libvorbis --enable-librubberband
DEBUG 2025-03-03 21:17:43 services 8208 12032 FFmpeg 输出: libavutil      59.  8.100 / 59.  8.100
DEBUG 2025-03-03 21:17:43 services 8208 12032 FFmpeg 输出: libavcodec     61.  3.100 / 61.  3.100
DEBUG 2025-03-03 21:17:43 services 8208 12032 FFmpeg 输出: libavformat    61.  1.100 / 61.  1.100
DEBUG 2025-03-03 21:17:43 services 8208 12032 FFmpeg 输出: libavdevice    61.  1.100 / 61.  1.100
DEBUG 2025-03-03 21:17:43 services 8208 12032 FFmpeg 输出: libavfilter    10.  1.100 / 10.  1.100
DEBUG 2025-03-03 21:17:43 services 8208 12032 FFmpeg 输出: libswscale      8.  1.100 /  8.  1.100
DEBUG 2025-03-03 21:17:43 services 8208 12032 FFmpeg 输出: libswresample   5.  1.100 /  5.  1.100
DEBUG 2025-03-03 21:17:43 services 8208 12032 FFmpeg 输出: libpostproc    58.  1.100 / 58.  1.100
DEBUG 2025-03-03 21:17:43 services 8208 12032 FFmpeg 输出: Input #0, mov,mp4,m4a,3gp,3g2,mj2, from 'F:\DjangoRestfulAPI\openpose3\pose\media\hls\c8d30a36-1652-4ba7-9655-a40dfabfda04\exercise_annotated.mp4':
DEBUG 2025-03-03 21:17:43 services 8208 12032 FFmpeg 输出: Metadata:
DEBUG 2025-03-03 21:17:43 services 8208 12032 FFmpeg 输出: major_brand     : isom
DEBUG 2025-03-03 21:17:43 services 8208 12032 FFmpeg 输出: minor_version   : 512
DEBUG 2025-03-03 21:17:43 services 8208 12032 FFmpeg 输出: compatible_brands: isomiso2mp41
DEBUG 2025-03-03 21:17:43 services 8208 12032 FFmpeg 输出: encoder         : Lavf58.76.100
DEBUG 2025-03-03 21:17:43 services 8208 12032 FFmpeg 输出: Duration: 00:00:01.77, start: 0.000000, bitrate: 4393 kb/s
DEBUG 2025-03-03 21:17:43 services 8208 12032 FFmpeg 输出: Stream #0:0[0x1](und): Video: mpeg4 (Simple Profile) (mp4v / 0x7634706D), yuv420p, 1280x720 [SAR 1:1 DAR 16:9], 4388 kb/s, 30 fps, 30 tbr, 15360 tbn (default)
DEBUG 2025-03-03 21:17:43 services 8208 12032 FFmpeg 输出: Metadata:
DEBUG 2025-03-03 21:17:43 services 8208 12032 FFmpeg 输出: handler_name    : VideoHandler
DEBUG 2025-03-03 21:17:43 services 8208 12032 FFmpeg 输出: vendor_id       : [0][0][0][0]
DEBUG 2025-03-03 21:17:43 services 8208 12032 FFmpeg 输出: Stream mapping:
DEBUG 2025-03-03 21:17:43 services 8208 12032 FFmpeg 输出: Stream #0:0 -> #0:0 (mpeg4 (native) -> h264 (libx264))
DEBUG 2025-03-03 21:17:43 services 8208 12032 FFmpeg 输出: Press [q] to stop, [?] for help
DEBUG 2025-03-03 21:17:43 services 8208 12032 FFmpeg 输出: [libx264 @ 000001e421ba2bc0] using SAR=1/1
DEBUG 2025-03-03 21:17:43 services 8208 12032 FFmpeg 输出: [libx264 @ 000001e421ba2bc0] using cpu capabilities: MMX2 SSE2Fast SSSE3 SSE4.2 AVX FMA3 BMI2 AVX2
DEBUG 2025-03-03 21:17:43 services 8208 12032 FFmpeg 输出: [libx264 @ 000001e421ba2bc0] profile High, level 3.1, 4:2:0, 8-bit
DEBUG 2025-03-03 21:17:43 services 8208 12032 FFmpeg 输出: [libx264 @ 000001e421ba2bc0] 264 - core 164 r3191 4613ac3 - H.264/MPEG-4 AVC codec - Copyleft 2003-2024 - http://www.videolan.org/x264.html - options: cabac=1 ref=3 deblock=1:0:0 analyse=0x3:0x113 me=hex subme=7 psy=1 psy_rd=1.00:0.00 mixed_ref=1 me_range=16 chroma_me=1 trellis=1 8x8dct=1 cqm=0 deadzone=21,11 fast_pskip=1 chroma_qp_offset=-2 threads=22 lookahead_threads=3 sliced_threads=0 nr=0 decimate=1 interlaced=0 bluray_compat=0 constrained_intra=0 bframes=3 b_pyramid=2 b_adapt=1 b_bias=0 direct=1 weightb=1 open_gop=0 weightp=2 keyint=250 keyint_min=25 scenecut=40 intra_refresh=0 rc_lookahead=40 rc=crf mbtree=1 crf=23.0 qcomp=0.60 qpmin=0 qpmax=69 qpstep=4 ip_ratio=1.40 aq=1:1.00
DEBUG 2025-03-03 21:17:43 services 8208 12032 FFmpeg 输出: Output #0, hls, to 'F:\DjangoRestfulAPI\openpose3\pose\media\hls\c8d30a36-1652-4ba7-9655-a40dfabfda04\exercise.m3u8':
DEBUG 2025-03-03 21:17:43 services 8208 12032 FFmpeg 输出: Metadata:
DEBUG 2025-03-03 21:17:43 services 8208 12032 FFmpeg 输出: major_brand     : isom
DEBUG 2025-03-03 21:17:43 services 8208 12032 FFmpeg 输出: minor_version   : 512
DEBUG 2025-03-03 21:17:43 services 8208 12032 FFmpeg 输出: compatible_brands: isomiso2mp41
DEBUG 2025-03-03 21:17:43 services 8208 12032 FFmpeg 输出: encoder         : Lavf61.1.100
DEBUG 2025-03-03 21:17:43 services 8208 12032 FFmpeg 输出: Stream #0:0(und): Video: h264, yuv420p(progressive), 1280x720 [SAR 1:1 DAR 16:9], q=2-31, 30 fps, 90k tbn (default)
DEBUG 2025-03-03 21:17:43 services 8208 12032 FFmpeg 输出: Metadata:
DEBUG 2025-03-03 21:17:43 services 8208 12032 FFmpeg 输出: handler_name    : VideoHandler
DEBUG 2025-03-03 21:17:43 services 8208 12032 FFmpeg 输出: vendor_id       : [0][0][0][0]
DEBUG 2025-03-03 21:17:43 services 8208 12032 FFmpeg 输出: encoder         : Lavc61.3.100 libx264
DEBUG 2025-03-03 21:17:43 services 8208 12032 FFmpeg 输出: Side data:
DEBUG 2025-03-03 21:17:43 services 8208 12032 FFmpeg 输出: cpb: bitrate max/min/avg: 0/0/0 buffer size: 0 vbv_delay: N/A
DEBUG 2025-03-03 21:17:43 services 8208 12032 FFmpeg 输出: [hls @ 000001e421bb3440] Opening 'F:\DjangoRestfulAPI\openpose3\pose\media\hls\c8d30a36-1652-4ba7-9655-a40dfabfda04\exercise_000.ts' for writing
DEBUG 2025-03-03 21:17:43 services 8208 12032 FFmpeg 输出: [hls @ 000001e421bb3440] Opening 'F:\DjangoRestfulAPI\openpose3\pose\media\hls\c8d30a36-1652-4ba7-9655-a40dfabfda04\exercise.m3u8.tmp' for writing
DEBUG 2025-03-03 21:17:43 services 8208 12032 FFmpeg 输出: [out#0/hls @ 000001e421bbc700] video:392KiB audio:0KiB subtitle:0KiB other streams:0KiB global headers:0KiB muxing overhead: unknown
DEBUG 2025-03-03 21:17:43 services 8208 12032 FFmpeg 输出: frame=   53 fps=0.0 q=-1.0 Lsize=N/A time=00:00:01.70 bitrate=N/A speed=4.88x
DEBUG 2025-03-03 21:17:43 services 8208 12032 FFmpeg 输出: [libx264 @ 000001e421ba2bc0] frame I:1     Avg QP:18.64  size: 20225
DEBUG 2025-03-03 21:17:43 services 8208 12032 FFmpeg 输出: [libx264 @ 000001e421ba2bc0] frame P:41    Avg QP:21.89  size:  8357
DEBUG 2025-03-03 21:17:43 services 8208 12032 FFmpeg 输出: [libx264 @ 000001e421ba2bc0] frame B:11    Avg QP:23.41  size:  3457
DEBUG 2025-03-03 21:17:43 services 8208 12032 FFmpeg 输出: [libx264 @ 000001e421ba2bc0] consecutive B-frames: 62.3% 26.4% 11.3%  0.0%
DEBUG 2025-03-03 21:17:43 services 8208 12032 FFmpeg 输出: [libx264 @ 000001e421ba2bc0] mb I  I16..4: 51.7% 44.1%  4.2%
DEBUG 2025-03-03 21:17:43 services 8208 12032 FFmpeg 输出: [libx264 @ 000001e421ba2bc0] mb P  I16..4:  3.2%  7.5%  0.3%  P16..4: 33.1%  5.6%  3.1%  0.0%  0.0%    skip:47.3%
DEBUG 2025-03-03 21:17:43 services 8208 12032 FFmpeg 输出: [libx264 @ 000001e421ba2bc0] mb B  I16..4:  0.7%  1.3%  0.0%  B16..8: 36.7%  2.5%  0.4%  direct: 2.1%  skip:56.2%  L0:52.3% L1:44.8% BI: 3.0%
DEBUG 2025-03-03 21:17:43 services 8208 12032 FFmpeg 输出: [libx264 @ 000001e421ba2bc0] 8x8 transform intra:63.9% inter:82.7%
DEBUG 2025-03-03 21:17:43 services 8208 12032 FFmpeg 输出: [libx264 @ 000001e421ba2bc0] coded y,uvDC,uvAC intra: 28.1% 30.2% 2.4% inter: 8.5% 9.0% 1.9%
DEBUG 2025-03-03 21:17:43 services 8208 12032 FFmpeg 输出: [libx264 @ 000001e421ba2bc0] i16 v,h,dc,p: 41% 40% 14%  4%
DEBUG 2025-03-03 21:17:43 services 8208 12032 FFmpeg 输出: [libx264 @ 000001e421ba2bc0] i8 v,h,dc,ddl,ddr,vr,hd,vl,hu: 28% 26% 41%  1%  1%  1%  1%  1%  1%
DEBUG 2025-03-03 21:17:43 services 8208 12032 FFmpeg 输出: [libx264 @ 000001e421ba2bc0] i4 v,h,dc,ddl,ddr,vr,hd,vl,hu: 40% 30% 17%  2%  2%  3%  2%  2%  2%
DEBUG 2025-03-03 21:17:43 services 8208 12032 FFmpeg 输出: [libx264 @ 000001e421ba2bc0] i8c dc,h,v,p: 52% 25% 21%  2%
DEBUG 2025-03-03 21:17:43 services 8208 12032 FFmpeg 输出: [libx264 @ 000001e421ba2bc0] Weighted P-Frames: Y:0.0% UV:0.0%
DEBUG 2025-03-03 21:17:43 services 8208 12032 FFmpeg 输出: [libx264 @ 000001e421ba2bc0] ref P L0: 73.6% 11.0% 11.8%  3.7%
DEBUG 2025-03-03 21:17:43 services 8208 12032 FFmpeg 输出: [libx264 @ 000001e421ba2bc0] ref B L0: 83.0% 15.8%  1.2%
DEBUG 2025-03-03 21:17:43 services 8208 12032 FFmpeg 输出: [libx264 @ 000001e421ba2bc0] kb/s:1815.36
INFO 2025-03-03 21:17:43 services 8208 12032 HLS 流处理完成: F:\DjangoRestfulAPI\openpose3\pose\media\hls\c8d30a36-1652-4ba7-9655-a40dfabfda04/exercise.m3u8
INFO 2025-03-03 21:17:43 services 8208 12032 视频处理完成，HLS转换状态: {'dtw_success': True, 'hls_success': True, 'standard_hls': True, 'exercise_hls': True, 'overlap_hls': True}
INFO 2025-03-03 21:17:43 basehttp 8208 12032 "POST /upload-videos/ HTTP/1.1" 201 683
INFO 2025-03-03 21:17:43 basehttp 8208 22428 "GET /media/hls/c8d30a36-1652-4ba7-9655-a40dfabfda04/standard.m3u8 HTTP/1.1" 200 122
INFO 2025-03-03 21:17:43 basehttp 8208 22368 "GET /media/hls/c8d30a36-1652-4ba7-9655-a40dfabfda04/exercise.m3u8 HTTP/1.1" 200 122
INFO 2025-03-03 21:17:52 basehttp 8208 22428 "GET /media/hls/c8d30a36-1652-4ba7-9655-a40dfabfda04/exercise_000.ts HTTP/1.1" 200 417924
INFO 2025-03-03 21:17:52 basehttp 8208 22368 "GET /media/hls/c8d30a36-1652-4ba7-9655-a40dfabfda04/standard_000.ts HTTP/1.1" 200 693908
INFO 2025-03-04 16:12:28 autoreload 10752 16352 Watching for file changes with StatReloader
WARNING 2025-03-04 16:12:45 log 10752 20464 Not Found: /
WARNING 2025-03-04 16:12:45 basehttp 10752 20464 "GET / HTTP/1.1" 404 179
WARNING 2025-03-04 16:12:45 log 10752 13964 Not Found: /favicon.ico
WARNING 2025-03-04 16:12:45 basehttp 10752 13964 "GET /favicon.ico HTTP/1.1" 404 179
INFO 2025-03-04 16:13:11 basehttp 10752 21052 "GET /frame-scores/c8d30a3616524ba79655a40dfabfda04 HTTP/1.1" 301 0
INFO 2025-03-04 16:13:11 basehttp 10752 1168 "GET /frame-scores/c8d30a3616524ba79655a40dfabfda04/ HTTP/1.1" 200 12674
WARNING 2025-03-04 16:13:11 log 10752 1168 Not Found: /static/rest_framework/css/bootstrap.min.css
WARNING 2025-03-04 16:13:11 basehttp 10752 1168 "GET /static/rest_framework/css/bootstrap.min.css HTTP/1.1" 404 179
WARNING 2025-03-04 16:13:11 log 10752 20556 Not Found: /static/rest_framework/css/bootstrap-tweaks.css
WARNING 2025-03-04 16:13:11 log 10752 20980 Not Found: /static/rest_framework/css/prettify.css
WARNING 2025-03-04 16:13:11 log 10752 1168 Not Found: /static/rest_framework/js/csrf.js
WARNING 2025-03-04 16:13:11 basehttp 10752 20556 "GET /static/rest_framework/css/bootstrap-tweaks.css HTTP/1.1" 404 179
WARNING 2025-03-04 16:13:11 log 10752 18520 Not Found: /static/rest_framework/css/default.css
WARNING 2025-03-04 16:13:11 basehttp 10752 20980 "GET /static/rest_framework/css/prettify.css HTTP/1.1" 404 179
WARNING 2025-03-04 16:13:11 basehttp 10752 1168 "GET /static/rest_framework/js/csrf.js HTTP/1.1" 404 179
WARNING 2025-03-04 16:13:11 log 10752 20660 Not Found: /static/rest_framework/js/jquery-3.7.1.min.js
WARNING 2025-03-04 16:13:11 log 10752 20556 Not Found: /static/rest_framework/js/prettify-min.js
WARNING 2025-03-04 16:13:11 basehttp 10752 18520 "GET /static/rest_framework/css/default.css HTTP/1.1" 404 179
WARNING 2025-03-04 16:13:11 log 10752 21016 Not Found: /static/rest_framework/js/ajax-form.js
WARNING 2025-03-04 16:13:11 log 10752 20980 Not Found: /static/rest_framework/js/bootstrap.min.js
WARNING 2025-03-04 16:13:11 log 10752 1168 Not Found: /static/rest_framework/js/default.js
WARNING 2025-03-04 16:13:11 log 10752 18520 Not Found: /static/rest_framework/js/load-ajax-form.js
WARNING 2025-03-04 16:13:11 basehttp 10752 20660 "GET /static/rest_framework/js/jquery-3.7.1.min.js HTTP/1.1" 404 179
WARNING 2025-03-04 16:13:11 basehttp 10752 20556 "GET /static/rest_framework/js/prettify-min.js HTTP/1.1" 404 179
WARNING 2025-03-04 16:13:11 basehttp 10752 21016 "GET /static/rest_framework/js/ajax-form.js HTTP/1.1" 404 179
WARNING 2025-03-04 16:13:11 basehttp 10752 20980 "GET /static/rest_framework/js/bootstrap.min.js HTTP/1.1" 404 179
WARNING 2025-03-04 16:13:11 basehttp 10752 1168 "GET /static/rest_framework/js/default.js HTTP/1.1" 404 179
WARNING 2025-03-04 16:13:11 basehttp 10752 18520 "GET /static/rest_framework/js/load-ajax-form.js HTTP/1.1" 404 179
INFO 2025-03-04 16:13:40 autoreload 10752 16352 F:\DjangoRestfulAPI\openpose3\pose\pose\urls.py changed, reloading.
INFO 2025-03-04 16:13:41 autoreload 2456 20204 Watching for file changes with StatReloader
INFO 2025-03-04 16:16:20 autoreload 2456 20204 F:\DjangoRestfulAPI\openpose3\pose\evalpose\views.py changed, reloading.
INFO 2025-03-04 16:16:21 autoreload 21232 2144 Watching for file changes with StatReloader
